<svg width="24" height="24" viewBox="0 0 24 24" fill="none" xmlns="http://www.w3.org/2000/svg">
<path d="M7.54601 17.891L7.77301 17.4455H7.773L7.54601 17.891ZM7.10899 17.454L7.5545 17.227V17.227L7.10899 17.454ZM16.891 17.454L17.3365 17.681V17.681L16.891 17.454ZM16.454 17.891L16.227 17.4455H16.227L16.454 17.891ZM5.18404 21.564L5.41103 21.1185L5.18404 21.564ZM3.43597 19.816L3.88148 19.589L3.43597 19.816ZM20.564 19.816L20.1185 19.589L20.564 19.816ZM18.816 21.564L18.589 21.1185L18.816 21.564ZM18.816 4.43597L18.589 4.88148L18.816 4.43597ZM20.564 6.18404L20.1185 6.41103L20.564 6.18404ZM5.18404 4.43597L5.41103 4.88148L5.18404 4.43597ZM3.43597 6.18404L3.88148 6.41103L3.43597 6.18404ZM3 9.5C2.72386 9.5 2.5 9.72386 2.5 10C2.5 10.2761 2.72386 10.5 3 10.5V9.5ZM21 10.5C21.2761 10.5 21.5 10.2761 21.5 10C21.5 9.72386 21.2761 9.5 21 9.5V10.5ZM7.5 6C7.5 6.27614 7.72386 6.5 8 6.5C8.27614 6.5 8.5 6.27614 8.5 6H7.5ZM8.5 2C8.5 1.72386 8.27614 1.5 8 1.5C7.72386 1.5 7.5 1.72386 7.5 2H8.5ZM15.5 6C15.5 6.27614 15.7239 6.5 16 6.5C16.2761 6.5 16.5 6.27614 16.5 6H15.5ZM16.5 2C16.5 1.72386 16.2761 1.5 16 1.5C15.7239 1.5 15.5 1.72386 15.5 2H16.5ZM16.5 10V16.4H17.5V10H16.5ZM15.4 17.5H8.6V18.5H15.4V17.5ZM7.5 16.4V10H6.5V16.4H7.5ZM8.6 17.5C8.31172 17.5 8.12559 17.4996 7.98392 17.488C7.84809 17.4769 7.79773 17.4581 7.77301 17.4455L7.31901 18.3365C7.5082 18.4329 7.70481 18.4686 7.90249 18.4847C8.09432 18.5004 8.32822 18.5 8.6 18.5V17.5ZM6.5 16.4C6.5 16.6718 6.49961 16.9057 6.51528 17.0975C6.53144 17.2952 6.56709 17.4918 6.66349 17.681L7.5545 17.227C7.5419 17.2023 7.52306 17.1519 7.51196 17.0161C7.50039 16.8744 7.5 16.6883 7.5 16.4H6.5ZM7.773 17.4455C7.67892 17.3976 7.60243 17.3211 7.5545 17.227L6.66349 17.681C6.8073 17.9632 7.03677 18.1927 7.31901 18.3365L7.773 17.4455ZM16.5 16.4C16.5 16.6883 16.4996 16.8744 16.488 17.0161C16.4769 17.1519 16.4581 17.2023 16.4455 17.227L17.3365 17.681C17.4329 17.4918 17.4686 17.2952 17.4847 17.0975C17.5004 16.9057 17.5 16.6718 17.5 16.4H16.5ZM15.4 18.5C15.6718 18.5 15.9057 18.5004 16.0975 18.4847C16.2952 18.4686 16.4918 18.4329 16.681 18.3365L16.227 17.4455C16.2023 17.4581 16.1519 17.4769 16.0161 17.488C15.8744 17.4996 15.6883 17.5 15.4 17.5V18.5ZM16.4455 17.227C16.3976 17.3211 16.3211 17.3976 16.227 17.4455L16.681 18.3365C16.9632 18.1927 17.1927 17.9632 17.3365 17.681L16.4455 17.227ZM9.4 4.5H14.6V3.5H9.4V4.5ZM20.5 10.4V15.6H21.5V10.4H20.5ZM14.6 21.5H9.4V22.5H14.6V21.5ZM3.5 15.6V10.4H2.5V15.6H3.5ZM9.4 21.5C8.27164 21.5 7.45545 21.4996 6.81352 21.4472C6.17744 21.3952 5.75662 21.2946 5.41103 21.1185L4.95704 22.0095C5.4671 22.2694 6.03416 22.3868 6.73209 22.4438C7.42418 22.5004 8.28815 22.5 9.4 22.5V21.5ZM2.5 15.6C2.5 16.7119 2.49961 17.5758 2.55616 18.2679C2.61318 18.9658 2.73058 19.5329 2.99047 20.043L3.88148 19.589C3.70539 19.2434 3.60481 18.8226 3.55284 18.1865C3.50039 17.5445 3.5 16.7284 3.5 15.6H2.5ZM5.41103 21.1185C4.75247 20.783 4.21703 20.2475 3.88148 19.589L2.99047 20.043C3.4219 20.8897 4.11031 21.5781 4.95704 22.0095L5.41103 21.1185ZM20.5 15.6C20.5 16.7284 20.4996 17.5445 20.4472 18.1865C20.3952 18.8226 20.2946 19.2434 20.1185 19.589L21.0095 20.043C21.2694 19.5329 21.3868 18.9658 21.4438 18.2679C21.5004 17.5758 21.5 16.7119 21.5 15.6H20.5ZM14.6 22.5C15.7119 22.5 16.5758 22.5004 17.2679 22.4438C17.9658 22.3868 18.5329 22.2694 19.043 22.0095L18.589 21.1185C18.2434 21.2946 17.8226 21.3952 17.1865 21.4472C16.5446 21.4996 15.7284 21.5 14.6 21.5V22.5ZM20.1185 19.589C19.783 20.2475 19.2475 20.783 18.589 21.1185L19.043 22.0095C19.8897 21.5781 20.5781 20.8897 21.0095 20.043L20.1185 19.589ZM14.6 4.5C15.7284 4.5 16.5446 4.50039 17.1865 4.55284C17.8226 4.60481 18.2434 4.70539 18.589 4.88148L19.043 3.99047C18.5329 3.73058 17.9658 3.61318 17.2679 3.55616C16.5758 3.49961 15.7119 3.5 14.6 3.5V4.5ZM21.5 10.4C21.5 9.28815 21.5004 8.42418 21.4438 7.73209C21.3868 7.03416 21.2694 6.4671 21.0095 5.95704L20.1185 6.41103C20.2946 6.75662 20.3952 7.17744 20.4472 7.81352C20.4996 8.45545 20.5 9.27164 20.5 10.4H21.5ZM18.589 4.88148C19.2475 5.21703 19.783 5.75247 20.1185 6.41103L21.0095 5.95704C20.5781 5.11031 19.8897 4.4219 19.043 3.99047L18.589 4.88148ZM9.4 3.5C8.28815 3.5 7.42418 3.49961 6.73209 3.55616C6.03416 3.61318 5.4671 3.73058 4.95704 3.99047L5.41103 4.88148C5.75662 4.70539 6.17744 4.60481 6.81352 4.55284C7.45545 4.50039 8.27164 4.5 9.4 4.5V3.5ZM3.5 10.4C3.5 9.27164 3.50039 8.45545 3.55284 7.81352C3.60481 7.17744 3.70539 6.75662 3.88148 6.41103L2.99047 5.95704C2.73058 6.4671 2.61318 7.03416 2.55616 7.73209C2.49961 8.42418 2.5 9.28814 2.5 10.4H3.5ZM4.95704 3.99047C4.11031 4.4219 3.4219 5.11031 2.99047 5.95704L3.88148 6.41103C4.21703 5.75247 4.75247 5.21703 5.41103 4.88148L4.95704 3.99047ZM3 10.5H21V9.5H3V10.5ZM8.5 6V2H7.5V6H8.5ZM16.5 6V2H15.5V6H16.5Z" fill="Black"/>
</svg>
