<svg width="24" height="24" viewBox="0 0 24 24" fill="none" xmlns="http://www.w3.org/2000/svg">
<path d="M16 3.5C16.2761 3.5 16.5 3.27614 16.5 3C16.5 2.72386 16.2761 2.5 16 2.5V3.5ZM21.5 12C21.5 11.7239 21.2761 11.5 21 11.5C20.7239 11.5 20.5 11.7239 20.5 12H21.5ZM5.18404 20.564L5.41103 20.1185L5.18404 20.564ZM3.43597 18.816L3.88148 18.589H3.88148L3.43597 18.816ZM18.816 20.564L18.589 20.1185H18.589L18.816 20.564ZM20.564 18.816L20.1185 18.589V18.589L20.564 18.816ZM3.43597 5.18404L2.99047 4.95704H2.99047L3.43597 5.18404ZM5.18404 3.43597L4.95704 2.99047V2.99047L5.18404 3.43597ZM12.4173 13.6427L12.0625 13.2904L12.0625 13.2904L12.4173 13.6427ZM21.3548 5.35232C21.5494 5.15638 21.5483 4.8398 21.3523 4.64522C21.1564 4.45064 20.8398 4.45174 20.6452 4.64768L21.3548 5.35232ZM11.7077 13.6427L12.0625 13.2904L12.0625 13.2904L11.7077 13.6427ZM8.35478 9.55677C8.1602 9.36083 7.84362 9.35973 7.64768 9.55431C7.45174 9.74889 7.45064 10.0655 7.64522 10.2614L8.35478 9.55677ZM14.6 20.5H9.4V21.5H14.6V20.5ZM3.5 14.6V9.4H2.5V14.6H3.5ZM9.4 3.5H16V2.5H9.4V3.5ZM20.5 12V14.6H21.5V12H20.5ZM9.4 20.5C8.27164 20.5 7.45545 20.4996 6.81352 20.4472C6.17744 20.3952 5.75662 20.2946 5.41103 20.1185L4.95704 21.0095C5.4671 21.2694 6.03416 21.3868 6.73209 21.4438C7.42418 21.5004 8.28815 21.5 9.4 21.5V20.5ZM2.5 14.6C2.5 15.7119 2.49961 16.5758 2.55616 17.2679C2.61318 17.9658 2.73058 18.5329 2.99047 19.043L3.88148 18.589C3.70539 18.2434 3.60481 17.8226 3.55284 17.1865C3.50039 16.5446 3.5 15.7284 3.5 14.6H2.5ZM5.41103 20.1185C4.75247 19.783 4.21703 19.2475 3.88148 18.589L2.99047 19.043C3.4219 19.8897 4.11031 20.5781 4.95704 21.0095L5.41103 20.1185ZM14.6 21.5C15.7119 21.5 16.5758 21.5004 17.2679 21.4438C17.9658 21.3868 18.5329 21.2694 19.043 21.0095L18.589 20.1185C18.2434 20.2946 17.8226 20.3952 17.1865 20.4472C16.5446 20.4996 15.7284 20.5 14.6 20.5V21.5ZM20.5 14.6C20.5 15.7284 20.4996 16.5446 20.4472 17.1865C20.3952 17.8226 20.2946 18.2434 20.1185 18.589L21.0095 19.043C21.2694 18.5329 21.3868 17.9658 21.4438 17.2679C21.5004 16.5758 21.5 15.7119 21.5 14.6H20.5ZM19.043 21.0095C19.8897 20.5781 20.5781 19.8897 21.0095 19.043L20.1185 18.589C19.783 19.2475 19.2475 19.783 18.589 20.1185L19.043 21.0095ZM3.5 9.4C3.5 8.27164 3.50039 7.45545 3.55284 6.81352C3.60481 6.17744 3.70539 5.75662 3.88148 5.41103L2.99047 4.95704C2.73058 5.4671 2.61318 6.03416 2.55616 6.73209C2.49961 7.42418 2.5 8.28815 2.5 9.4H3.5ZM9.4 2.5C8.28815 2.5 7.42418 2.49961 6.73209 2.55616C6.03416 2.61318 5.4671 2.73058 4.95704 2.99047L5.41103 3.88148C5.75662 3.70539 6.17744 3.60481 6.81352 3.55284C7.45545 3.50039 8.27164 3.5 9.4 3.5V2.5ZM3.88148 5.41103C4.21703 4.75247 4.75247 4.21703 5.41103 3.88148L4.95704 2.99047C4.11031 3.4219 3.4219 4.11031 2.99047 4.95704L3.88148 5.41103ZM12.7721 13.9951L21.3548 5.35232L20.6452 4.64768L12.0625 13.2904L12.7721 13.9951ZM12.0625 13.2904L8.35478 9.55677L7.64522 10.2614L11.3529 13.9951L12.0625 13.2904ZM12.0625 13.2904H12.0625L11.3529 13.9951C11.744 14.3889 12.381 14.3889 12.7721 13.9951L12.0625 13.2904Z" fill="white"/>
</svg>
