<svg width="19" height="19" viewBox="0 0 19 19" fill="none" xmlns="http://www.w3.org/2000/svg">
<path d="M9.50005 3.95828C5.56502 3.95828 2.37505 7.14825 2.37505 11.0833C2.37505 15.0183 5.56502 18.2083 9.50005 18.2083C13.4351 18.2083 16.625 15.0183 16.625 11.0833C16.625 7.14825 13.4351 3.95828 9.50005 3.95828ZM9.50005 3.95828V1.58328M14.25 5.54162L15.8334 3.95828M4.75005 5.54162L3.16671 3.95828M7.91671 1.58328H11.0834M9.50005 7.91662V11.0833M15.0417 2.83683C15.8019 3.3733 16.4798 4.01856 17.0529 4.74995M2.08789 4.74995C2.62533 4.06398 3.25506 3.45377 3.95838 2.93802" stroke="black" stroke-linecap="round"/>
</svg>
