<svg width="31" height="31" viewBox="0 0 31 31" fill="none" xmlns="http://www.w3.org/2000/svg">
<path d="M14.0833 18.8594L13.4106 18.1195L14.0833 18.8594ZM21.2105 13.7316C21.6192 13.3601 21.6493 12.7276 21.2778 12.319C20.9063 11.9103 20.2738 11.8802 19.8652 12.2517L21.2105 13.7316ZM13.2424 18.8594L13.9151 18.1195L13.2424 18.8594ZM11.2105 15.6608C10.8019 15.2893 10.1694 15.3194 9.7979 15.7281C9.42639 16.1367 9.45651 16.7692 9.86517 17.1407L11.2105 15.6608ZM14.7559 19.5994L21.2105 13.7316L19.8652 12.2517L13.4106 18.1195L14.7559 19.5994ZM13.9151 18.1195L11.2105 15.6608L9.86517 17.1407L12.5697 19.5994L13.9151 18.1195ZM13.4106 18.1195C13.5536 17.9895 13.7721 17.9895 13.9151 18.1195L12.5697 19.5994C13.1896 20.1628 14.1361 20.1628 14.7559 19.5994L13.4106 18.1195ZM27.0378 15.4916C27.0378 21.8429 21.8891 26.9916 15.5378 26.9916V28.9916C22.9937 28.9916 29.0378 22.9475 29.0378 15.4916H27.0378ZM15.5378 26.9916C9.18657 26.9916 4.03784 21.8429 4.03784 15.4916H2.03784C2.03784 22.9475 8.082 28.9916 15.5378 28.9916V26.9916ZM4.03784 15.4916C4.03784 9.14036 9.18657 3.99164 15.5378 3.99164V1.99164C8.082 1.99164 2.03784 8.03579 2.03784 15.4916H4.03784ZM15.5378 3.99164C21.8891 3.99164 27.0378 9.14036 27.0378 15.4916H29.0378C29.0378 8.03579 22.9937 1.99164 15.5378 1.99164V3.99164Z" fill="white"/>
</svg>
