<svg width="24" height="24" viewBox="0 0 24 24" fill="none" xmlns="http://www.w3.org/2000/svg">
<path d="M6 7C6 7.55228 6.44772 8 7 8C7.55228 8 8 7.55228 8 7H6ZM8 17C8 16.4477 7.55228 16 7 16C6.44772 16 6 16.4477 6 17H8ZM8.09202 20.782L8.54601 19.891L8.54601 19.891L8.09202 20.782ZM7.21799 19.908L6.32698 20.362L7.21799 19.908ZM20.782 19.908L21.673 20.362L20.782 19.908ZM19.908 20.782L19.454 19.891L19.454 19.891L19.908 20.782ZM19.908 3.21799L19.454 4.10899V4.10899L19.908 3.21799ZM20.782 4.09202L19.891 4.54601V4.54601L20.782 4.09202ZM7.21799 4.09202L8.10899 4.54601L7.21799 4.09202ZM8.09202 3.21799L7.63803 2.32698V2.32698L8.09202 3.21799ZM14 13C14.5523 13 15 12.5523 15 12C15 11.4477 14.5523 11 14 11V13ZM3 11C2.44772 11 2 11.4477 2 12C2 12.5523 2.44772 13 3 13V11ZM4.83205 9.5547C5.1384 9.09517 5.01423 8.4743 4.5547 8.16795C4.09517 7.8616 3.4743 7.98577 3.16795 8.4453L4.83205 9.5547ZM2.1849 11.7227L3.01695 12.2774H3.01695L2.1849 11.7227ZM2.1849 12.2774L3.01695 11.7227L2.1849 12.2774ZM3.16795 15.5547C3.4743 16.0142 4.09517 16.1384 4.5547 15.8321C5.01423 15.5257 5.1384 14.9048 4.83205 14.4453L3.16795 15.5547ZM8 7V6.2H6V7H8ZM10.2 4H17.8V2H10.2V4ZM20 6.2V17.8H22V6.2H20ZM17.8 20H10.2V22H17.8V20ZM8 17.8V17H6V17.8H8ZM10.2 20C9.62345 20 9.25117 19.9992 8.96784 19.9761C8.69617 19.9539 8.59545 19.9162 8.54601 19.891L7.63803 21.673C8.01641 21.8658 8.40963 21.9371 8.80497 21.9694C9.18864 22.0008 9.65645 22 10.2 22V20ZM6 17.8C6 18.3436 5.99922 18.8114 6.03057 19.195C6.06287 19.5904 6.13419 19.9836 6.32698 20.362L8.10899 19.454C8.0838 19.4045 8.04612 19.3038 8.02393 19.0322C8.00078 18.7488 8 18.3766 8 17.8H6ZM8.54601 19.891C8.35785 19.7951 8.20487 19.6422 8.10899 19.454L6.32698 20.362C6.6146 20.9265 7.07354 21.3854 7.63803 21.673L8.54601 19.891ZM20 17.8C20 18.3766 19.9992 18.7488 19.9761 19.0322C19.9539 19.3038 19.9162 19.4045 19.891 19.454L21.673 20.362C21.8658 19.9836 21.9371 19.5904 21.9694 19.195C22.0008 18.8114 22 18.3436 22 17.8H20ZM17.8 22C18.3436 22 18.8114 22.0008 19.195 21.9694C19.5904 21.9371 19.9836 21.8658 20.362 21.673L19.454 19.891C19.4045 19.9162 19.3038 19.9539 19.0322 19.9761C18.7488 19.9992 18.3766 20 17.8 20V22ZM19.891 19.454C19.7951 19.6422 19.6422 19.7951 19.454 19.891L20.362 21.673C20.9265 21.3854 21.3854 20.9265 21.673 20.362L19.891 19.454ZM17.8 4C18.3766 4 18.7488 4.00078 19.0322 4.02393C19.3038 4.04612 19.4045 4.0838 19.454 4.10899L20.362 2.32698C19.9836 2.13419 19.5904 2.06287 19.195 2.03057C18.8114 1.99922 18.3436 2 17.8 2V4ZM22 6.2C22 5.65645 22.0008 5.18864 21.9694 4.80497C21.9371 4.40963 21.8658 4.01641 21.673 3.63803L19.891 4.54601C19.9162 4.59545 19.9539 4.69617 19.9761 4.96784C19.9992 5.25117 20 5.62345 20 6.2H22ZM19.454 4.10899C19.6422 4.20487 19.7951 4.35785 19.891 4.54601L21.673 3.63803C21.3854 3.07354 20.9265 2.6146 20.362 2.32698L19.454 4.10899ZM8 6.2C8 5.62345 8.00078 5.25117 8.02393 4.96784C8.04612 4.69617 8.0838 4.59545 8.10899 4.54601L6.32698 3.63803C6.13419 4.01641 6.06287 4.40963 6.03057 4.80497C5.99922 5.18864 6 5.65645 6 6.2H8ZM10.2 2C9.65645 2 9.18864 1.99922 8.80497 2.03057C8.40963 2.06287 8.01641 2.13419 7.63803 2.32698L8.54601 4.10899C8.59545 4.0838 8.69617 4.04612 8.96784 4.02393C9.25117 4.00078 9.62345 4 10.2 4V2ZM8.10899 4.54601C8.20487 4.35785 8.35785 4.20487 8.54601 4.10899L7.63803 2.32698C7.07354 2.6146 6.6146 3.07354 6.32698 3.63803L8.10899 4.54601ZM14 11H3V13H14V11ZM3.16795 8.4453L1.35285 11.168L3.01695 12.2774L4.83205 9.5547L3.16795 8.4453ZM1.35285 12.8321L3.16795 15.5547L4.83205 14.4453L3.01695 11.7227L1.35285 12.8321ZM1.35285 11.168C1.01695 11.6718 1.01695 12.3282 1.35285 12.8321L3.01695 11.7227C3.12892 11.8906 3.12892 12.1094 3.01695 12.2774L1.35285 11.168Z" fill="white"/>
</svg>
