<svg width="24" height="24" viewBox="0 0 24 24" fill="none" xmlns="http://www.w3.org/2000/svg">
<path fill-rule="evenodd" clip-rule="evenodd" d="M12 24C18.6274 24 24 18.6274 24 12C24 5.37258 18.6274 0 12 0C5.37258 0 0 5.37258 0 12C0 18.6274 5.37258 24 12 24ZM7.8 11.4C8.46276 11.4 9 10.8628 9 10.2C9 9.53724 8.46276 9 7.8 9C7.13724 9 6.6 9.53724 6.6 10.2C6.6 10.8628 7.13724 11.4 7.8 11.4ZM17.4 10.2C17.4 10.8628 16.8628 11.4 16.2 11.4C15.5372 11.4 15 10.8628 15 10.2C15 9.53724 15.5372 9 16.2 9C16.8628 9 17.4 9.53724 17.4 10.2ZM16.0243 16.6243L15.6 16.2C16.0243 16.6243 16.0243 16.6243 16.0243 16.6243L16.0224 16.6261L16.0201 16.6285L16.0139 16.6344C16.0093 16.6389 16.0034 16.6445 15.9963 16.6512C15.9821 16.6645 15.9629 16.682 15.9389 16.7031C15.8907 16.7452 15.8228 16.8017 15.735 16.8675C15.5595 16.9991 15.304 17.1688 14.9683 17.3366C14.2949 17.6734 13.3037 18 12 18C10.6963 18 9.70506 17.6734 9.03168 17.3366C8.69598 17.1688 8.4405 16.9991 8.265 16.8675C8.17722 16.8017 8.1093 16.7452 8.06112 16.7031C8.03706 16.682 8.01792 16.6645 8.0037 16.6512C7.99656 16.6445 7.99068 16.6389 7.98606 16.6344L7.97994 16.6285L7.9776 16.6261L7.97664 16.6252L7.97616 16.6247C7.97616 16.6247 7.97574 16.6243 8.4 16.2L7.97616 16.6247C7.74186 16.3904 7.74144 16.01 7.97574 15.7757C8.20902 15.5424 8.58666 15.5414 8.82126 15.7727L8.82444 15.7757C8.82894 15.78 8.83794 15.7883 8.85138 15.8C8.8782 15.8235 8.92278 15.8608 8.985 15.9075C9.1095 16.0009 9.30402 16.1312 9.56832 16.2634C10.0949 16.5266 10.9037 16.8 12 16.8C13.0963 16.8 13.9051 16.5266 14.4317 16.2634C14.696 16.1312 14.8905 16.0009 15.015 15.9075C15.0772 15.8608 15.1218 15.8235 15.1486 15.8C15.1621 15.7883 15.1711 15.78 15.1756 15.7757L15.1787 15.7727C15.4133 15.5414 15.791 15.5424 16.0243 15.7757C16.2586 16.01 16.2586 16.39 16.0243 16.6243Z" fill="#333333"/>
</svg>
