<svg width="24" height="24" viewBox="0 0 24 24" fill="none" xmlns="http://www.w3.org/2000/svg">
<path d="M7.79998 11.4C8.46274 11.4 8.99998 10.8628 8.99998 10.2C8.99998 9.53724 8.46274 9 7.79998 9C7.13722 9 6.59998 9.53724 6.59998 10.2C6.59998 10.8628 7.13722 11.4 7.79998 11.4Z" fill="#333333"/>
<path d="M17.4 10.2C17.4 10.8628 16.8628 11.4 16.2 11.4C15.5372 11.4 15 10.8628 15 10.2C15 9.53724 15.5372 9 16.2 9C16.8628 9 17.4 9.53724 17.4 10.2Z" fill="#333333"/>
<path d="M7.79995 15.5999C7.46857 15.5999 7.19995 15.8685 7.19995 16.1999C7.19995 16.5312 7.46857 16.7999 7.79995 16.7999H16.2C16.5313 16.7999 16.8 16.5312 16.8 16.1999C16.8 15.8685 16.5313 15.5999 16.2 15.5999H7.79995Z" fill="#333333"/>
<path fill-rule="evenodd" clip-rule="evenodd" d="M24 12C24 18.6274 18.6274 24 12 24C5.37258 24 0 18.6274 0 12C0 5.37258 5.37258 0 12 0C18.6274 0 24 5.37258 24 12ZM22.8 12C22.8 17.9647 17.9647 22.8 12 22.8C6.03534 22.8 1.2 17.9647 1.2 12C1.2 6.03534 6.03534 1.2 12 1.2C17.9647 1.2 22.8 6.03534 22.8 12Z" fill="#333333"/>
</svg>
