<svg width="24" height="24" viewBox="0 0 24 24" fill="none" xmlns="http://www.w3.org/2000/svg">
<path d="M15.4865 21C13.4824 22.3333 10.8532 22.3333 8.84906 21M3 6C3.69579 4.4075 4.79436 3.03124 6.16694 2M18.1689 2C19.5415 3.03124 20.64 4.4075 21.3358 6M5.16791 10C5.16791 6.13401 8.30192 3 12.1679 3C16.0339 3 19.1679 6.13401 19.1679 10V12.5778C19.1679 14.1572 19.6354 15.7013 20.5115 17.0154L20.6497 17.2226C20.8712 17.5549 20.633 18 20.2337 18H4.10217C3.70282 18 3.46463 17.5549 3.68615 17.2227L3.82432 17.0154C4.70041 15.7013 5.16791 14.1572 5.16791 12.5778V10Z" stroke="white" stroke-linecap="round"/>
</svg>
