<svg width="31" height="31" viewBox="0 0 31 31" fill="none" xmlns="http://www.w3.org/2000/svg">
<path d="M21.4231 3.81671V13.5239C21.4231 14.0095 21.4231 14.2523 21.3219 14.3861C21.2336 14.5027 21.0988 14.5749 20.9529 14.5836C20.7854 14.5936 20.5834 14.4589 20.1793 14.1896L18.1169 12.8146C17.9565 12.7077 17.8763 12.6542 17.7896 12.6334C17.713 12.6151 17.6332 12.6151 17.5566 12.6334C17.4699 12.6542 17.3897 12.7077 17.2293 12.8146L15.1669 14.1896C14.7628 14.4589 14.5608 14.5936 14.3933 14.5836C14.2474 14.5749 14.1125 14.5027 14.0243 14.3861C13.9231 14.2523 13.9231 14.0095 13.9231 13.5239V3.76874M13.9231 3.76874H11.9231C9.12283 3.76874 7.7227 3.76874 6.65314 4.31371C5.71233 4.79307 4.94743 5.55797 4.46806 6.49879C3.9231 7.56834 3.9231 8.96848 3.9231 11.7687V18.2687C3.9231 21.069 3.9231 22.4691 4.46806 23.5387C4.94743 24.4795 5.71233 25.2444 6.65314 25.7238C7.7227 26.2687 9.12283 26.2687 11.9231 26.2687H18.4231C21.2234 26.2687 22.6235 26.2687 23.693 25.7238C24.6339 25.2444 25.3988 24.4795 25.8781 23.5387C26.4231 22.4691 26.4231 21.069 26.4231 18.2687V11.7687C26.4231 8.96848 26.4231 7.56834 25.8781 6.49879C25.3988 5.55797 24.6339 4.79307 23.693 4.31371C22.8738 3.8963 21.8607 3.7986 20.1731 3.77573C19.6573 3.76874 19.0786 3.76874 18.4231 3.76874H15.1731H13.9231Z" stroke="white" stroke-width="2"/>
</svg>
