<svg width="24" height="24" viewBox="0 0 24 24" fill="none" xmlns="http://www.w3.org/2000/svg">
<path d="M1.5 22C1.5 22.2761 1.72386 22.5 2 22.5C2.27614 22.5 2.5 22.2761 2.5 22H1.5ZM21.5 22C21.5 22.2761 21.7239 22.5 22 22.5C22.2761 22.5 22.5 22.2761 22.5 22H21.5ZM17.75 8.25C17.75 11.4256 15.1756 14 12 14V15C15.7279 15 18.75 11.9779 18.75 8.25H17.75ZM12 14C8.82436 14 6.25 11.4256 6.25 8.25H5.25C5.25 11.9779 8.27208 15 12 15V14ZM6.25 8.25C6.25 5.07436 8.82436 2.5 12 2.5V1.5C8.27208 1.5 5.25 4.52208 5.25 8.25H6.25ZM12 2.5C15.1756 2.5 17.75 5.07436 17.75 8.25H18.75C18.75 4.52208 15.7279 1.5 12 1.5V2.5ZM2.5 22C2.5 20.1216 3.514 18.3829 5.22893 17.0967C6.94402 15.8104 9.3363 15 12 15V14C9.14085 14 6.53314 14.8685 4.62893 16.2967C2.72458 17.725 1.5 19.7363 1.5 22H2.5ZM22.5 22C22.5 19.7363 21.2754 17.725 19.3711 16.2967C17.4669 14.8685 14.8591 14 12 14V15C14.6637 15 17.056 15.8104 18.7711 17.0967C20.486 18.3829 21.5 20.1216 21.5 22H22.5Z" fill="white"/>
</svg>
