<svg width="71" height="74" viewBox="0 0 71 74" fill="none" xmlns="http://www.w3.org/2000/svg">
<mask id="path-1-inside-1_506_260" fill="white">
<path d="M42.1816 73.0208C34.458 74.5569 26.4615 73.388 19.4473 69.6977C12.4331 66.0074 6.79819 60.0046 3.42708 52.6315C0.0559684 45.2585 -0.860516 36.9324 0.821473 28.9604C2.50346 20.9883 6.68871 13.8214 12.7203 8.5847C18.7519 3.34798 26.2884 0.337849 34.1468 0.026773C42.0053 -0.284303 49.7408 2.12129 56.1393 6.86596C62.5378 11.6106 67.237 18.4258 69.4993 26.2418C71.7617 34.0577 71.4591 42.432 68.639 50.0501L35.5 36.8396L42.1816 73.0208Z"/>
</mask>
<path d="M42.1816 73.0208C34.458 74.5569 26.4615 73.388 19.4473 69.6977C12.4331 66.0074 6.79819 60.0046 3.42708 52.6315C0.0559684 45.2585 -0.860516 36.9324 0.821473 28.9604C2.50346 20.9883 6.68871 13.8214 12.7203 8.5847C18.7519 3.34798 26.2884 0.337849 34.1468 0.026773C42.0053 -0.284303 49.7408 2.12129 56.1393 6.86596C62.5378 11.6106 67.237 18.4258 69.4993 26.2418C71.7617 34.0577 71.4591 42.432 68.639 50.0501L35.5 36.8396L42.1816 73.0208Z" stroke="#1F5B6C" stroke-width="50" mask="url(#path-1-inside-1_506_260)"/>
<ellipse cx="35.9467" cy="37.0629" rx="30.1415" ry="31.2579" fill="white"/>
<path d="M21.3158 43.7996C20.1425 43.7996 19.1158 43.6262 18.2358 43.2796C17.3558 42.9196 16.6692 42.4196 16.1758 41.7796C15.6825 41.1262 15.4358 40.3662 15.4358 39.4996C15.4358 38.6329 15.6758 37.8996 16.1558 37.2996C16.6492 36.6862 17.3358 36.2262 18.2158 35.9196C19.0958 35.5996 20.1292 35.4396 21.3158 35.4396C22.5158 35.4396 23.5558 35.5996 24.4358 35.9196C25.3292 36.2262 26.0158 36.6862 26.4958 37.2996C26.9892 37.8996 27.2358 38.6329 27.2358 39.4996C27.2358 40.3662 26.9892 41.1262 26.4958 41.7796C26.0025 42.4196 25.3092 42.9196 24.4158 43.2796C23.5358 43.6262 22.5025 43.7996 21.3158 43.7996ZM21.3158 41.4196C22.1292 41.4196 22.7692 41.2396 23.2358 40.8796C23.7158 40.5196 23.9558 40.0262 23.9558 39.3996C23.9558 38.7729 23.7158 38.2862 23.2358 37.9396C22.7692 37.5796 22.1292 37.3996 21.3158 37.3996C20.5158 37.3996 19.8825 37.5796 19.4158 37.9396C18.9492 38.2862 18.7158 38.7729 18.7158 39.3996C18.7158 40.0262 18.9492 40.5196 19.4158 40.8796C19.8825 41.2396 20.5158 41.4196 21.3158 41.4196ZM21.3158 37.0796C20.2358 37.0796 19.2892 36.9329 18.4758 36.6396C17.6758 36.3462 17.0492 35.9196 16.5958 35.3596C16.1558 34.7862 15.9358 34.1062 15.9358 33.3196C15.9358 32.4929 16.1625 31.7862 16.6158 31.1996C17.0692 30.5996 17.7025 30.1396 18.5158 29.8196C19.3292 29.4862 20.2625 29.3196 21.3158 29.3196C22.3958 29.3196 23.3358 29.4862 24.1358 29.8196C24.9492 30.1396 25.5825 30.5996 26.0358 31.1996C26.5025 31.7862 26.7358 32.4929 26.7358 33.3196C26.7358 34.1062 26.5092 34.7862 26.0558 35.3596C25.6158 35.9196 24.9892 36.3462 24.1758 36.6396C23.3625 36.9329 22.4092 37.0796 21.3158 37.0796ZM21.3158 35.1796C21.9958 35.1796 22.5292 35.0262 22.9158 34.7196C23.3158 34.4129 23.5158 33.9929 23.5158 33.4596C23.5158 32.8996 23.3092 32.4662 22.8958 32.1596C22.4958 31.8529 21.9692 31.6996 21.3158 31.6996C20.6758 31.6996 20.1558 31.8529 19.7558 32.1596C19.3558 32.4662 19.1558 32.8996 19.1558 33.4596C19.1558 33.9929 19.3492 34.4129 19.7358 34.7196C20.1225 35.0262 20.6492 35.1796 21.3158 35.1796ZM34.719 43.7996C33.5723 43.7996 32.5456 43.5196 31.639 42.9596C30.7323 42.3862 30.019 41.5596 29.499 40.4796C28.979 39.3996 28.719 38.0929 28.719 36.5596C28.719 35.0262 28.979 33.7196 29.499 32.6396C30.019 31.5596 30.7323 30.7396 31.639 30.1796C32.5456 29.6062 33.5723 29.3196 34.719 29.3196C35.879 29.3196 36.9056 29.6062 37.799 30.1796C38.7056 30.7396 39.419 31.5596 39.939 32.6396C40.459 33.7196 40.719 35.0262 40.719 36.5596C40.719 38.0929 40.459 39.3996 39.939 40.4796C39.419 41.5596 38.7056 42.3862 37.799 42.9596C36.9056 43.5196 35.879 43.7996 34.719 43.7996ZM34.719 41.0596C35.2656 41.0596 35.739 40.9062 36.139 40.5996C36.5523 40.2929 36.8723 39.8062 37.099 39.1396C37.339 38.4729 37.459 37.6129 37.459 36.5596C37.459 35.5062 37.339 34.6462 37.099 33.9796C36.8723 33.3129 36.5523 32.8262 36.139 32.5196C35.739 32.2129 35.2656 32.0596 34.719 32.0596C34.1856 32.0596 33.7123 32.2129 33.299 32.5196C32.899 32.8262 32.579 33.3129 32.339 33.9796C32.1123 34.6462 31.999 35.5062 31.999 36.5596C31.999 37.6129 32.1123 38.4729 32.339 39.1396C32.579 39.8062 32.899 40.2929 33.299 40.5996C33.7123 40.9062 34.1856 41.0596 34.719 41.0596ZM44.3132 43.5596L53.8732 29.5596H56.2532L46.6932 43.5596H44.3132ZM45.5332 37.1196C44.8532 37.1196 44.2532 36.9662 43.7332 36.6596C43.2132 36.3396 42.7999 35.8929 42.4932 35.3196C42.1999 34.7329 42.0532 34.0462 42.0532 33.2596C42.0532 32.4729 42.1999 31.7929 42.4932 31.2196C42.7999 30.6462 43.2132 30.1996 43.7332 29.8796C44.2532 29.5596 44.8532 29.3996 45.5332 29.3996C46.2132 29.3996 46.8132 29.5596 47.3332 29.8796C47.8532 30.1996 48.2599 30.6462 48.5532 31.2196C48.8465 31.7929 48.9932 32.4729 48.9932 33.2596C48.9932 34.0462 48.8465 34.7329 48.5532 35.3196C48.2599 35.8929 47.8532 36.3396 47.3332 36.6596C46.8132 36.9662 46.2132 37.1196 45.5332 37.1196ZM45.5332 35.4796C45.9732 35.4796 46.3265 35.2996 46.5932 34.9396C46.8599 34.5662 46.9932 34.0062 46.9932 33.2596C46.9932 32.5129 46.8599 31.9596 46.5932 31.5996C46.3265 31.2262 45.9732 31.0396 45.5332 31.0396C45.1065 31.0396 44.7532 31.2262 44.4732 31.5996C44.2065 31.9596 44.0732 32.5129 44.0732 33.2596C44.0732 33.9929 44.2065 34.5462 44.4732 34.9196C44.7532 35.2929 45.1065 35.4796 45.5332 35.4796ZM55.0332 43.7196C54.3665 43.7196 53.7665 43.5662 53.2332 43.2596C52.7132 42.9396 52.3065 42.4929 52.0132 41.9196C51.7199 41.3329 51.5732 40.6462 51.5732 39.8596C51.5732 39.0729 51.7199 38.3929 52.0132 37.8196C52.3065 37.2462 52.7132 36.7996 53.2332 36.4796C53.7665 36.1596 54.3665 35.9996 55.0332 35.9996C55.7265 35.9996 56.3332 36.1596 56.8532 36.4796C57.3732 36.7996 57.7799 37.2462 58.0732 37.8196C58.3665 38.3929 58.5132 39.0729 58.5132 39.8596C58.5132 40.6462 58.3665 41.3329 58.0732 41.9196C57.7799 42.4929 57.3732 42.9396 56.8532 43.2596C56.3332 43.5662 55.7265 43.7196 55.0332 43.7196ZM55.0332 42.0796C55.4732 42.0796 55.8265 41.8996 56.0932 41.5396C56.3599 41.1662 56.4932 40.6062 56.4932 39.8596C56.4932 39.1262 56.3599 38.5729 56.0932 38.1996C55.8265 37.8262 55.4732 37.6396 55.0332 37.6396C54.6065 37.6396 54.2532 37.8262 53.9732 38.1996C53.7065 38.5596 53.5732 39.1129 53.5732 39.8596C53.5732 40.6062 53.7065 41.1662 53.9732 41.5396C54.2532 41.8996 54.6065 42.0796 55.0332 42.0796Z" fill="#1F5B6C"/>
</svg>
