<svg width="24" height="24" viewBox="0 0 24 24" fill="none" xmlns="http://www.w3.org/2000/svg">
<path d="M7.68063 17.7591L7.68003 17.7599C7.48113 18.0247 7.10499 18.0786 6.84003 17.8799C6.57489 17.6811 6.52119 17.305 6.72003 17.0399L7.20003 17.3999C6.72003 17.0399 6.71985 17.0401 6.72003 17.0399L6.72063 17.0391L6.72147 17.038L6.72363 17.0352L6.72987 17.0269C6.73497 17.0203 6.74187 17.0115 6.75051 17.0005C6.76785 16.9786 6.79227 16.9485 6.82365 16.9111C6.88635 16.8363 6.97719 16.7326 7.09491 16.6098C7.32999 16.3645 7.67529 16.0396 8.12211 15.7147C9.01335 15.0664 10.3347 14.3999 12 14.3999C13.6653 14.3999 14.9867 15.0664 15.8779 15.7147C16.3247 16.0396 16.67 16.3645 16.9051 16.6098C17.0229 16.7326 17.1137 16.8363 17.1764 16.9111C17.2078 16.9485 17.2322 16.9786 17.2495 17.0005L17.2607 17.0148L17.2701 17.0269L17.2764 17.0352L17.2785 17.038L17.2794 17.0391C17.2795 17.0392 17.28 17.0399 16.8212 17.384L17.28 17.0399C17.4788 17.305 17.4251 17.6811 17.16 17.8799C16.8953 18.0784 16.5199 18.0252 16.3209 17.7611L16.3205 17.7606C16.3204 17.7604 16.32 17.7599 16.8 17.3999L16.32 17.7599L16.3194 17.7591L16.3086 17.7454C16.2981 17.7321 16.2809 17.7108 16.2572 17.6825C16.2098 17.626 16.1365 17.5422 16.0387 17.44C15.8425 17.2353 15.5503 16.9602 15.1721 16.6851C14.4134 16.1334 13.3347 15.5999 12 15.5999C10.6653 15.5999 9.58665 16.1334 8.82789 16.6851C8.44971 16.9602 8.15751 17.2353 7.96131 17.44C7.86345 17.5422 7.79025 17.626 7.74279 17.6825C7.71909 17.7108 7.70193 17.7321 7.69137 17.7454L7.68063 17.7591Z" fill="#333333"/>
<path d="M8.17713 9.64292C8.48481 9.51986 8.83401 9.6695 8.95707 9.97718C9.08013 10.2849 8.9305 10.6341 8.62282 10.7571L7.12317 11.357L5.62282 11.9571C5.31514 12.0802 4.96599 11.9305 4.84287 11.6229C4.71982 11.3152 4.86946 10.966 5.17714 10.8429L8.17713 9.64292Z" fill="#333333"/>
<path d="M15.0428 9.97718C15.1659 9.6695 15.5151 9.51986 15.8228 9.64292L18.8228 10.8429C19.1304 10.966 19.2801 11.3152 19.157 11.6229C19.0339 11.9305 18.6848 12.0802 18.3771 11.9571L15.3771 10.7571C15.0694 10.6341 14.9198 10.2849 15.0428 9.97718Z" fill="#333333"/>
<path fill-rule="evenodd" clip-rule="evenodd" d="M24 12C24 18.6274 18.6274 24 12 24C5.37258 24 0 18.6274 0 12C0 5.37258 5.37258 0 12 0C18.6274 0 24 5.37258 24 12ZM22.8 12C22.8 17.9647 17.9647 22.8 12 22.8C6.03534 22.8 1.2 17.9647 1.2 12C1.2 6.03534 6.03534 1.2 12 1.2C17.9647 1.2 22.8 6.03534 22.8 12Z" fill="#333333"/>
</svg>
