<svg width="31" height="31" viewBox="0 0 31 31" fill="none" xmlns="http://www.w3.org/2000/svg">
<path d="M6.70544 1.56342C6.15316 1.56342 5.70544 2.01113 5.70544 2.56342C5.70544 3.1157 6.15316 3.56342 6.70544 3.56342V1.56342ZM24.2054 3.56342C24.7577 3.56342 25.2054 3.1157 25.2054 2.56342C25.2054 2.01113 24.7577 1.56342 24.2054 1.56342V3.56342ZM6.70544 26.5634C6.15316 26.5634 5.70544 27.0111 5.70544 27.5634C5.70544 28.1157 6.15316 28.5634 6.70544 28.5634V26.5634ZM24.2054 28.5634C24.7577 28.5634 25.2054 28.1157 25.2054 27.5634C25.2054 27.0111 24.7577 26.5634 24.2054 26.5634V28.5634ZM8.95544 2.56342C8.95544 2.01113 8.50773 1.56342 7.95544 1.56342C7.40316 1.56342 6.95544 2.01113 6.95544 2.56342H8.95544ZM21.9554 27.5634C21.9554 28.1157 22.4032 28.5634 22.9554 28.5634C23.5077 28.5634 23.9554 28.1157 23.9554 27.5634H21.9554ZM23.9554 2.56342C23.9554 2.01113 23.5077 1.56342 22.9554 1.56342C22.4032 1.56342 21.9554 2.01113 21.9554 2.56342H23.9554ZM6.95544 27.5634C6.95544 28.1157 7.40316 28.5634 7.95544 28.5634C8.50773 28.5634 8.95544 28.1157 8.95544 27.5634H6.95544ZM20.2054 7.56342C20.2054 7.01113 19.7577 6.56342 19.2054 6.56342C18.6532 6.56342 18.2054 7.01113 18.2054 7.56342H20.2054ZM12.7054 7.56342C12.7054 7.01113 12.2577 6.56342 11.7054 6.56342C11.1532 6.56342 10.7054 7.01113 10.7054 7.56342H12.7054ZM11.7054 22.8134C11.1532 22.8134 10.7054 23.2611 10.7054 23.8134C10.7054 24.3657 11.1532 24.8134 11.7054 24.8134V22.8134ZM19.2054 24.8134C19.7577 24.8134 20.2054 24.3657 20.2054 23.8134C20.2054 23.2611 19.7577 22.8134 19.2054 22.8134V24.8134ZM6.70544 3.56342H24.2054V1.56342H6.70544V3.56342ZM6.70544 28.5634H24.2054V26.5634H6.70544V28.5634ZM6.95544 2.56342V7.56342H8.95544V2.56342H6.95544ZM21.9554 22.5634V27.5634H23.9554V22.5634H21.9554ZM15.4554 16.0634C19.0453 16.0634 21.9554 18.9736 21.9554 22.5634H23.9554C23.9554 17.869 20.1499 14.0634 15.4554 14.0634V16.0634ZM6.95544 7.56342C6.95544 12.2578 10.761 16.0634 15.4554 16.0634V14.0634C11.8656 14.0634 8.95544 11.1533 8.95544 7.56342H6.95544ZM21.9554 2.56342V7.56342H23.9554V2.56342H21.9554ZM6.95544 22.5634V27.5634H8.95544V22.5634H6.95544ZM15.4554 14.0634C10.761 14.0634 6.95544 17.869 6.95544 22.5634H8.95544C8.95544 18.9736 11.8656 16.0634 15.4554 16.0634V14.0634ZM21.9554 7.56342C21.9554 11.1533 19.0453 14.0634 15.4554 14.0634V16.0634C20.1499 16.0634 23.9554 12.2578 23.9554 7.56342H21.9554ZM18.2054 7.56342C18.2054 9.0822 16.9742 10.3134 15.4554 10.3134V12.3134C18.0788 12.3134 20.2054 10.1868 20.2054 7.56342H18.2054ZM15.4554 10.3134C13.9367 10.3134 12.7054 9.0822 12.7054 7.56342H10.7054C10.7054 10.1868 12.8321 12.3134 15.4554 12.3134V10.3134ZM11.7054 24.8134H19.2054V22.8134H11.7054V24.8134Z" fill="white"/>
</svg>
